<svg t="1609993844920" class="icon" viewBox="0 0 1024 1024" version="1.1" xmlns="http://www.w3.org/2000/svg" p-id="3577"><path d="M639.607467 494.318933a128 128 0 0 0-22.101334-56.234666l-0.187733-0.494934a128.9216 128.9216 0 0 0-210.670933 0l-0.256 0.580267A128.136533 128.136533 0 0 0 385.706667 486.656l-0.238934 0.546133a126.651733 126.651733 0 0 0-2.440533 24.797867 128.9728 128.9728 0 1 0 256.802133-17.169067zM512 591.377067A79.377067 79.377067 0 1 1 591.377067 512 79.377067 79.377067 0 0 1 512 591.377067z" p-id="3578" fill="#ffffff"></path><path d="M512 85.333333C276.343467 85.333333 85.333333 276.343467 85.333333 512s191.010133 426.666667 426.666667 426.666667 426.666667-191.010133 426.666667-426.666667S747.656533 85.333333 512 85.333333z m213.333333 573.3376A66.696533 66.696533 0 0 1 658.670933 725.333333H365.329067A66.56 66.56 0 0 1 298.666667 658.670933V365.329067A66.696533 66.696533 0 0 1 365.329067 298.666667h293.341866A66.696533 66.696533 0 0 1 725.333333 365.329067v121.873066z" p-id="3579" fill="#ffffff"></path><path d="M676.471467 337.5104h-30.72a10.24 10.24 0 0 0-10.24 10.24v30.72a10.24 10.24 0 0 0 10.24 10.24h30.72a10.24 10.24 0 0 0 10.24-10.24v-30.72a10.24 10.24 0 0 0-10.24-10.24z" p-id="3580" fill="#ffffff"></path></svg>