<svg t="1609992871211" class="icon" viewBox="0 0 1024 1024" version="1.1" xmlns="http://www.w3.org/2000/svg" p-id="921" >
    <path d="M512 512m-512 0a512 512 0 1 0 1024 0 512 512 0 1 0-1024 0Z" fill="#FFFFFF" p-id="922">
    </path>
    <path d="M695.4752 442.112c0-4.224-0.0768-8.3712-0.256-12.4928A191.104 191.104 0 0 0 742.4 380.3136a185.6 185.6 0 0 1-54.2976 14.4384 94.72 94.72 0 0 0 41.5744-52.7872 184.8064 184.8064 0 0 1-60.032 22.5024A95.1552 95.1552 0 0 0 600.6528 332.8c-52.224-0.8448-94.5408 42.0352-94.5408 95.7696 0 7.6544 0.8192 15.0528 2.4576 22.1952-78.6432-4.9152-148.3008-44.6976-194.9184-104.6784a99.5072 99.5072 0 0 0-12.8 49.152 100.352 100.352 0 0 0 42.0608 82.176 92.288 92.288 0 0 1-42.8288-12.7744v1.28c0 47.5648 32.5888 87.424 75.8528 96.7168a91.648 91.648 0 0 1-42.6752 1.408c12.032 38.9632 46.9504 67.456 88.32 68.4032A185.6768 185.6768 0 0 1 281.6 672.64 260.1472 260.1472 0 0 0 426.5472 716.8c173.8496 0.0512 268.928-147.072 268.928-274.688z" fill="#121932" opacity=".1" p-id="923">
    </path>
 </svg>